PathFileType  4	(X/Y/Z) C:\Users\antoi\Documents\MyRepositories\mobilecap\ResultsAnalysis
DataRate	CameraRate	NumFrames	NumMarkers	Units	OrigDataRate	OrigDataStartFrame	OrigNumFrames
100.0	100.0	5	51	mm	100.0	47	125
Frame#	Time	r_knee			r_shank_antsup			r_ankle			r_calc			r_5meta			r_toe			L_knee			L_shank_antsup			L_ankle			L_calc			L_5meta			L_toe			r_sh2			r_sh3			r_sh4			L_sh2			L_sh3			r_thigh1			r_thigh2			r_thigh3			r_thigh4			r_thigh5			L_thigh1			L_thigh2			L_thigh3			L_thigh4			r.ASIS			r.PSIS			L.ASIS			L.PSIS			C7			R_Shoulder			L_Shoulder			R_Sternum			L_Sternum			R_humerus			R_elbow_med			R_elbow_lat			R_forearm			R_wrist_radius			R_wrist_ulna			L_humerus			L_elbow_med			L_elbow_lat			L_forearm			L_wrist_radius			L_wrist_ulna			R_HJC			L_HJC			R_HJC_reg			L_HJC_reg			
		X1	Y1	Z1	X2	Y2	Z2	X3	Y3	Z3	X4	Y4	Z4	X5	Y5	Z5	X6	Y6	Z6	X7	Y7	Z7	X8	Y8	Z8	X9	Y9	Z9	X10	Y10	Z10	X11	Y11	Z11	X12	Y12	Z12	X13	Y13	Z13	X14	Y14	Z14	X15	Y15	Z15	X16	Y16	Z16	X17	Y17	Z17	X18	Y18	Z18	X19	Y19	Z19	X20	Y20	Z20	X21	Y21	Z21	X22	Y22	Z22	X23	Y23	Z23	X24	Y24	Z24	X25	Y25	Z25	X26	Y26	Z26	X27	Y27	Z27	X28	Y28	Z28	X29	Y29	Z29	X30	Y30	Z30	X31	Y31	Z31	X32	Y32	Z32	X33	Y33	Z33	X34	Y34	Z34	X35	Y35	Z35	X36	Y36	Z36	X37	Y37	Z37	X38	Y38	Z38	X39	Y39	Z39	X40	Y40	Z40	X41	Y41	Z41	X42	Y42	Z42	X43	Y43	Z43	X44	Y44	Z44	X45	Y45	Z45	X46	Y46	Z46	X47	Y47	Z47	X48	Y48	Z48	X49	Y49	Z49	X50	Y50	Z50	X51	Y51	Z51	

47	0.46000000	325.18490	454.81731	-126.31834	306.71728	381.35899	-109.74391	174.79277	108.33952	-175.44479	99.96317	84.39552	-213.85555	265.66341	43.16785	-149.81162	312.30488	57.06189	-205.58016	587.99203	464.92649	-378.11344	633.50369	420.52903	-383.63303	725.58952	120.53432	-367.84633	683.99414	56.33878	-319.19411	830.26896	119.21618	-397.03656	863.40990	166.15921	-346.10104	264.49601	276.77157	-115.49800	237.28288	408.21725	-123.80591	188.39009	304.37550	-135.61133	548.89090	392.27948	-398.63643	601.61154	281.47811	-403.42583	478.83552	745.68243	-104.87361	458.35176	633.67830	-105.09135	402.68743	620.63061	-71.64715	376.77832	760.08830	-51.08741	351.19635	647.64080	-71.53507	537.47465	749.51381	-397.39188	591.29887	621.26418	-387.20625	433.97531	704.57218	-424.15791	495.83701	575.94938	-407.89832	489.13795	897.12570	-110.49893	309.97033	917.21732	-196.20091	503.73129	896.13952	-368.84180	312.10604	903.91927	-302.06463	385.14786	1382.86770	-239.25340	446.48156	1321.92814	-91.47546	428.49825	1324.76672	-407.79815	494.41473	1290.95289	-228.09825	491.51561	1290.86319	-272.54751	497.66387	1095.20893	-6.51396	457.34591	978.55688	-32.91800	495.24538	1010.23775	23.10570	592.28684	937.01914	-1.45739	668.13008	848.93024	-28.53929	644.88242	823.52449	-0.18380	434.17828	1193.41966	-466.87150	335.62217	998.54755	-429.73624	340.93940	1010.98828	-491.03954	352.85324	910.69093	-531.26637	326.24377	786.35286	-539.98899	290.05179	793.43799	-545.54239	425.74304	822.20272	-141.85852	439.75153	821.42362	-341.65210	425.99400	830.44990	-139.34349	429.41651	809.16751	-308.75068	
48	0.47000000	334.86768	453.70897	-126.25007	315.18602	380.50177	-109.70080	176.63972	110.45307	-175.00663	101.41119	87.66164	-213.46118	266.11659	43.12131	-149.63648	312.95966	56.53981	-205.31911	599.92239	461.31962	-377.59324	647.13211	418.57619	-382.63307	750.33622	121.68133	-366.61985	710.59523	55.37907	-318.74631	855.32642	124.70977	-394.57501	885.91443	173.03342	-343.07993	270.58335	276.86041	-115.31479	246.14653	408.93667	-123.59046	195.07408	306.15931	-135.19359	563.79773	387.49252	-398.25447	620.59243	278.58262	-402.83842	491.47579	742.97471	-104.36965	469.92467	631.27361	-104.10012	413.81504	619.00910	-71.34207	389.28692	758.75281	-51.65285	362.61818	646.46365	-71.76922	552.33749	745.17127	-398.85320	604.05647	616.06353	-388.24183	448.18388	701.98361	-425.28860	507.90260	572.43745	-408.14539	503.28960	894.56684	-110.57662	324.84849	914.34873	-198.18704	519.74428	893.19038	-369.23254	327.84077	900.89086	-303.98598	399.74657	1380.21849	-240.81077	461.19729	1319.22799	-93.01217	442.75039	1321.88952	-409.40937	508.90497	1288.30879	-229.58635	506.12869	1288.26191	-274.06612	512.87278	1092.87461	-7.76348	472.79259	975.98755	-33.87380	510.79825	1007.91999	22.02254	608.04974	935.16797	-3.09076	684.27891	847.60095	-30.63277	661.31936	822.13672	-1.97784	447.97119	1190.52167	-468.32842	349.49439	995.96760	-430.30018	354.28706	1008.46461	-491.68579	363.99672	908.41336	-532.39816	334.69632	784.58643	-541.27575	298.61077	792.40034	-546.53566	440.17274	819.53502	-142.64535	455.80880	818.44949	-342.31379	440.32670	827.69320	-139.88321	445.12842	806.11610	-309.50335	
49	0.48000000	345.07568	452.58098	-126.22894	324.10666	379.69401	-109.67709	178.76012	112.91352	-174.48695	103.13553	91.42152	-213.01755	266.65247	43.12205	-149.44637	313.64753	55.95151	-205.08466	613.01864	458.31795	-377.06805	661.42762	416.51244	-381.49038	771.10734	121.64207	-365.20420	732.46422	53.93892	-318.11462	876.40488	127.61212	-391.85232	904.92410	176.80655	-339.78577	277.03180	277.10077	-115.12225	255.59678	409.73871	-123.45470	202.19912	308.13530	-134.80510	579.11896	383.81701	-398.23530	638.30342	276.13732	-402.49636	504.51244	740.27039	-104.03511	481.97849	628.88323	-103.27666	425.49153	617.35379	-71.17140	402.28211	757.35020	-52.33437	374.55279	645.22151	-72.09684	567.97527	741.55340	-400.58121	617.96105	611.70367	-389.18855	463.25525	699.63227	-426.43709	521.24476	569.39966	-408.44900	517.62905	892.05156	-110.56513	339.92967	911.38287	-200.25031	535.88879	890.43953	-369.53518	343.74932	897.89985	-306.00843	414.42951	1377.64526	-242.52155	475.95058	1316.65570	-94.62448	457.08415	1319.01598	-411.15452	523.56627	1285.81852	-231.16853	520.90318	1285.79099	-275.69103	527.91664	1090.57454	-9.14940	488.00113	973.49042	-35.05622	526.05426	1005.60108	20.77341	623.43959	933.12052	-4.68873	699.91523	845.91746	-32.52160	677.14631	820.43161	-3.63418	462.03645	1187.57345	-469.82191	363.79419	993.21685	-430.95053	368.10212	1005.80633	-492.40512	375.78348	906.05335	-533.57100	344.07925	782.76296	-542.60987	308.15349	791.20912	-547.58497	454.80727	816.86812	-143.47933	472.13817	815.61120	-343.00585	454.94266	824.84675	-140.38973	461.08046	803.19215	-310.24728	
50	0.49000000	355.83292	451.43076	-126.26605	333.45245	378.93672	-109.66397	181.14937	115.71607	-173.89603	105.15789	95.69535	-212.53193	267.28034	43.17447	-149.24742	314.37873	55.31410	-204.87309	627.44492	455.85013	-376.57473	676.55556	414.23663	-380.24374	787.92950	120.05871	-363.61950	749.57714	51.83155	-317.26773	893.61038	127.47234	-388.98329	920.68147	177.09859	-336.40065	283.81132	277.50078	-114.91270	265.61095	410.62402	-123.42090	209.74829	310.32299	-134.48855	594.86649	381.15801	-398.49902	654.71094	273.90364	-402.33490	518.01061	737.59288	-103.94381	494.56946	626.50905	-102.73146	437.76136	615.64749	-71.19475	415.78604	755.85940	-53.12861	387.04359	643.90068	-72.55284	584.38494	738.70819	-402.42279	633.08673	608.29523	-389.92375	479.20332	697.50515	-427.54181	535.99514	566.84350	-408.82782	532.21187	889.58342	-110.53125	355.25854	908.40714	-202.32417	552.20795	887.96258	-369.78874	359.84168	895.01742	-308.05986	429.18600	1375.17800	-244.38452	490.74534	1314.26818	-96.31918	471.52261	1316.19424	-413.02981	538.38777	1283.49315	-232.84553	535.81085	1283.45440	-277.41961	542.77456	1088.36204	-10.67969	502.94776	971.11854	-36.47326	540.98788	1003.34785	19.35657	638.43087	930.93733	-6.25184	715.00960	843.92396	-34.19754	692.34679	818.45943	-5.14109	476.40169	1184.62903	-471.34710	378.49999	990.36830	-431.68609	382.38337	1003.07173	-493.20485	388.25478	903.65018	-534.77595	354.45855	780.89087	-543.96685	318.70261	789.88452	-548.67163	469.70691	814.23269	-144.37872	488.73054	812.98479	-343.75201	469.88398	822.00623	-140.89668	477.25855	800.46729	-310.99726	
51	0.50000000	367.18448	450.24042	-126.37581	343.24408	378.21159	-109.65974	183.82450	118.84944	-173.24159	107.51249	100.50401	-212.01199	268.00368	43.28321	-149.04643	315.18302	54.66212	-204.66361	643.15561	453.80749	-376.14546	692.49233	411.69040	-378.94854	801.18897	116.92112	-361.94500	762.26580	49.23987	-316.28301	907.34175	124.22096	-386.09426	933.67631	173.88864	-333.07687	290.93746	278.05302	-114.69202	276.20099	411.58084	-123.48872	217.74531	312.72855	-134.26529	610.94363	379.33067	-398.89474	669.84267	271.69593	-402.21982	531.99933	734.96549	-104.13643	507.72890	624.15132	-102.53220	450.63720	613.87686	-71.44693	429.78807	754.26939	-54.03332	400.10741	642.48811	-73.16707	601.47330	736.58777	-404.18603	649.34985	605.83838	-390.37928	495.95936	695.59954	-428.60244	552.10102	564.74884	-409.30572	547.09553	887.15503	-110.55664	370.87546	905.52893	-204.34380	568.74955	885.80697	-370.05499	376.13276	892.31477	-310.06554	443.99318	1372.84461	-246.39822	505.57894	1312.10465	-98.11295	486.09456	1313.47094	-415.02685	553.35108	1281.33005	-234.61396	550.82919	1281.25022	-279.24445	557.42563	1086.27977	-12.35245	517.60451	968.92030	-38.12107	555.57155	1001.22008	17.78016	652.99333	928.67801	-7.77604	729.52691	841.67240	-35.65785	706.89080	816.27600	-6.48935	491.07841	1181.74837	-472.91519	393.59911	987.50244	-432.50429	397.12257	1000.32258	-494.09618	401.44906	901.23697	-536.00162	365.86942	778.97302	-545.31065	330.26689	788.43965	-549.76986	484.92488	811.65857	-145.36575	505.56220	810.62860	-344.58229	485.16849	819.28028	-141.45016	493.63897	797.99310	-311.78166	
